<svg width="17" height="15" viewBox="0 0 17 15" fill="none" xmlns="http://www.w3.org/2000/svg">
<path d="M9.97926 1.47171C9.88027 1.29928 9.73754 1.15601 9.56547 1.05639C9.3934 0.956759 9.19809 0.904297 8.99926 0.904297C8.80043 0.904297 8.60512 0.956759 8.43305 1.05639C8.26099 1.15601 8.11825 1.29928 8.01926 1.47171L1.16226 13.1387C1.05697 13.3143 0.999721 13.5145 0.996261 13.7192C0.9928 13.9239 1.04325 14.1259 1.14254 14.3049C1.24184 14.4839 1.38648 14.6337 1.56196 14.7392C1.73744 14.8446 1.93757 14.9021 2.14226 14.9057H15.8553C16.06 14.9021 16.2601 14.8446 16.4356 14.7392C16.611 14.6337 16.7557 14.4839 16.855 14.3049C16.9543 14.1259 17.0047 13.9239 17.0013 13.7192C16.9978 13.5145 16.9406 13.3143 16.8353 13.1387L9.97926 1.47171ZM8.99726 4.90571C9.12389 4.90501 9.24924 4.93103 9.36512 4.98208C9.481 5.03313 9.58481 5.10805 9.66975 5.20197C9.7547 5.29588 9.81887 5.40665 9.85807 5.52706C9.89727 5.64747 9.91063 5.77479 9.89726 5.90071L9.54726 9.40571C9.5355 9.54349 9.47246 9.67183 9.37062 9.76535C9.26877 9.85887 9.13553 9.91077 8.99726 9.91077C8.85899 9.91077 8.72575 9.85887 8.62391 9.76535C8.52206 9.67183 8.45902 9.54349 8.44726 9.40571L8.09726 5.90071C8.08389 5.77479 8.09725 5.64747 8.13645 5.52706C8.17565 5.40665 8.23983 5.29588 8.32477 5.20197C8.40971 5.10805 8.51352 5.03313 8.6294 4.98208C8.74528 4.93103 8.87063 4.90501 8.99726 4.90571ZM8.99726 10.9057C9.19504 10.9057 9.38838 10.9644 9.55283 11.0742C9.71728 11.1841 9.84545 11.3403 9.92114 11.523C9.99683 11.7058 10.0166 11.9068 9.97805 12.1008C9.93946 12.2948 9.84422 12.473 9.70437 12.6128C9.56452 12.7527 9.38633 12.8479 9.19235 12.8865C8.99837 12.9251 8.7973 12.9053 8.61458 12.8296C8.43185 12.7539 8.27567 12.6257 8.16579 12.4613C8.05591 12.2968 7.99726 12.1035 7.99726 11.9057C7.99726 11.6405 8.10262 11.3861 8.29015 11.1986C8.47769 11.0111 8.73204 10.9057 8.99726 10.9057Z" fill="#9A3E3A"/>
</svg>
